<?xml version="1.0" encoding="UTF-8" standalone="no" ?>
<!DOCTYPE svg PUBLIC "-//W3C//DTD SVG 1.1//EN" "http://www.w3.org/Graphics/SVG/1.1/DTD/svg11.dtd">
<svg xmlns="http://www.w3.org/2000/svg" xmlns:xlink="http://www.w3.org/1999/xlink" version="1.1" width="640" height="480" viewBox="0 0 640 480" xml:space="preserve">
<desc>Created with Fabric.js 3.6.3</desc>
<defs>
</defs>
<g transform="matrix(1 0 0 1 364.18 419.88)"  >
<path style="stroke: none; stroke-width: 1; stroke-dasharray: none; stroke-linecap: butt; stroke-dashoffset: 0; stroke-linejoin: miter; stroke-miterlimit: 4; fill: rgb(240,240,240); fill-rule: nonzero; opacity: 1;"  transform=" translate(-526.55, -545.95)" d="M 465.59076 496.88433 c 32.59906 -57.34523 94.78224 -101.37694 160.60838 -97.13517 a 303.91886 303.91886 0 0 0 -79.93135 192.74415 c -1.08086 27.64353 0.5953 58.50234 -17.75918 79.20149 c -11.42033 12.87974 -28.87664 19.11743 -46.04 20.426 c -17.16419 1.30818 -34.32439 -1.79287 -51.25919 -4.88078 l -4.108 1.261 C 425.53748 622.55617 432.9917 554.22955 465.59076 496.88433 Z" stroke-linecap="round" />
</g>
<g transform="matrix(1 0 0 1 364.65 416.52)"  >
<path style="stroke: none; stroke-width: 1; stroke-dasharray: none; stroke-linecap: butt; stroke-dashoffset: 0; stroke-linejoin: miter; stroke-miterlimit: 4; fill: rgb(255,255,255); fill-rule: nonzero; opacity: 1;"  transform=" translate(-527.03, -542.59)" d="M 626.29714 401.1298 C 577.6195 424.56328 536.113 463.69962 510.63332 511.42944 c -5.50863 10.31908 -10.19864 21.26636 -12.24449 32.84118 c -2.04677 11.58 -0.61712 22.60314 3.3381 33.60164 c 3.61588 10.05484 8.47891 19.92112 9.58764 30.67984 c 1.16866 11.34025 -3.00384 21.94364 -10.51467 30.359 c -9.18971 10.29644 -21.531 16.67682 -33.81667 22.49689 c -13.64084 6.46206 -27.9118 12.958 -37.57338 25.01857 c -1.17064 1.46131 -3.36964 -0.44057 -2.20077 -1.89967 c 16.8095 -20.9833 45.58314 -24.92774 65.53614 -41.8308 c 9.31043 -7.88728 16.30035 -18.62816 15.85922 -31.21353 c -0.38575 -11.00537 -5.39185 -21.18385 -9.141 -31.33295 c -3.93666 -10.65673 -5.89983 -21.37183 -4.48809 -32.73356 c 1.44413 -11.62241 5.716 -22.77612 10.93669 -33.19077 c 11.77384 -23.48755 27.88681 -45.05091 46.345 -63.69115 a 264.37529 264.37529 0 0 1 73.0986 -52.15542 c 1.68149 -0.80947 2.612 1.94689 0.9415 2.75108 Z" stroke-linecap="round" />
</g>
<g transform="matrix(1 0 0 1 348.95 344.62)"  >
<path style="stroke: none; stroke-width: 1; stroke-dasharray: none; stroke-linecap: butt; stroke-dashoffset: 0; stroke-linejoin: miter; stroke-miterlimit: 4; fill: rgb(255,255,255); fill-rule: nonzero; opacity: 1;"  transform=" translate(-511.34, -470.69)" d="M 518.09691 495.47812 a 38.97361 38.97361 0 0 1 -11.76083 -49.07724 c 0.85125 -1.66563 3.47954 -0.42109 2.62716 1.24676 a 36.0887 36.0887 0 0 0 11.03334 45.62971 c 1.51533 1.097 -0.393 3.29149 -1.89967 2.20077 Z" stroke-linecap="round" />
</g>
<g transform="matrix(1 0 0 1 361.25 434.58)"  >
<path style="stroke: none; stroke-width: 1; stroke-dasharray: none; stroke-linecap: butt; stroke-dashoffset: 0; stroke-linejoin: miter; stroke-miterlimit: 4; fill: rgb(255,255,255); fill-rule: nonzero; opacity: 1;"  transform=" translate(-523.63, -560.66)" d="M 499.22208 573.01552 A 75.11847 75.11847 0 0 0 546.7827 545.9063 c 1.17577 -1.45711 3.37512 0.44432 2.20077 1.89967 A 78.13447 78.13447 0 0 1 499.435 575.915 c -1.85547 0.26565 -2.05831 -2.63524 -0.21291 -2.89944 Z" stroke-linecap="round" />
</g>
<g transform="matrix(1 0 0 1 421.94 311.53)"  >
<path style="stroke: none; stroke-width: 1; stroke-dasharray: none; stroke-linecap: butt; stroke-dashoffset: 0; stroke-linejoin: miter; stroke-miterlimit: 4; fill: rgb(255,255,255); fill-rule: nonzero; opacity: 1;"  transform=" translate(-584.32, -437.61)" d="M 574.90706 432.68514 a 22.06094 22.06094 0 0 0 19.71762 7.02965 c 1.85119 -0.289 2.05205 2.6123 0.21291 2.89945 a 24.7211 24.7211 0 0 1 -21.8302 -7.72833 a 1.50247 1.50247 0 0 1 -0.15055 -2.05022 a 1.461 1.461 0 0 1 2.05022 -0.15055 Z" stroke-linecap="round" />
</g>
<g transform="matrix(1 0 0 1 428.39 513.5)"  >
<path style="stroke: none; stroke-width: 1; stroke-dasharray: none; stroke-linecap: butt; stroke-dashoffset: 0; stroke-linejoin: miter; stroke-miterlimit: 4; fill: rgb(240,240,240); fill-rule: nonzero; opacity: 1;"  transform=" translate(-590.77, -639.57)" d="M 757.17329 580.65231 c -1.15078 0.21336 -2.30157 0.42671 -3.46287 0.66229 a 290.53033 290.53033 0 0 0 -45.42472 12.55654 c -1.14909 0.4 -2.30759 0.82272 -3.44279 1.25493 a 306.28393 306.28393 0 0 0 -96.32923 58.62179 a 297.4401 297.4401 0 0 0 -31.20006 32.695 c -13.1961 16.12271 -26.22121 34.65379 -43.46521 45.16611 a 51.02756 51.02756 0 0 1 -5.552 3.00981 l -99.33786 -41.204 c -0.17876 -0.20694 -0.368 -0.39178 -0.54786 -0.59918 l -4.04148 -1.46379 c 0.45079 -0.63649 0.932 -1.28694 1.38279 -1.92343 c 0.26 -0.3703 0.542 -0.73142 0.802 -1.10173 c 0.18032 -0.244 0.36179 -0.48759 0.51056 -0.718 c 0.05971 -0.08143 0.12054 -0.16239 0.1709 -0.22127 c 0.14877 -0.23046 0.31142 -0.42872 0.45078 -0.63649 q 4.01975 -5.46492 8.13029 -10.89234 c 0.00941 -0.02268 0.00941 -0.02268 0.041 -0.03619 c 20.95061 -27.51625 44.38244 -53.52519 71.017 -75.1508 c 0.80155 -0.65037 1.61141 -1.32388 2.45834 -1.95543 a 283.82353 283.82353 0 0 1 38.36428 -25.95136 a 250.912 250.912 0 0 1 22.75777 -11.25342 A 208.65167 208.65167 0 0 1 633.669 545.38918 c 43.43148 -4.033 87.66932 5.869 120.97979 33.15354 C 755.50038 579.24131 756.33106 579.931 757.17329 580.65231 Z" stroke-linecap="round" />
</g>
<g transform="matrix(1 0 0 1 429.66 509.55)"  >
<path style="stroke: none; stroke-width: 1; stroke-dasharray: none; stroke-linecap: butt; stroke-dashoffset: 0; stroke-linejoin: miter; stroke-miterlimit: 4; fill: rgb(255,255,255); fill-rule: nonzero; opacity: 1;"  transform=" translate(-592.04, -635.62)" d="M 756.427 581.82048 c -52.975 -10.597 -109.67838 -4.3386 -158.75909 18.43049 c -10.61113 4.92262 -20.94686 10.83971 -29.5492 18.84981 c -8.60619 8.01369 -14.10139 17.67579 -17.56522 28.83879 c -3.16664 10.20524 -5.224 21.0108 -10.81619 30.26856 c -5.89451 9.75817 -15.61 15.71225 -26.6736 17.90941 c -13.53663 2.6883 -27.23193 0.35234 -40.5454 -2.39747 c -14.78206 -3.05312 -30.08763 -6.45857 -45.06315 -2.64583 c -1.81449 0.462 -2.42521 -2.38053 -0.61346 -2.8418 c 26.05484 -6.63351 51.40382 7.5408 77.512 6.05773 c 12.18255 -0.692 24.23036 -5.0596 31.45541 -15.37391 c 6.318 -9.01942 8.449 -20.16039 11.566 -30.52112 c 3.27289 -10.87894 8.15663 -20.61632 16.12437 -28.838 c 8.15056 -8.41037 18.27673 -14.744 28.71548 -19.91633 c 23.54187 -11.66483 49.38981 -19.18084 75.35035 -22.95093 a 264.37547 264.37547 0 0 1 89.76631 2.36722 c 1.82993 0.36606 0.91338 3.1271 -0.9046 2.76343 Z" stroke-linecap="round" />
</g>
<g transform="matrix(1 0 0 1 461.15 443.26)"  >
<path style="stroke: none; stroke-width: 1; stroke-dasharray: none; stroke-linecap: butt; stroke-dashoffset: 0; stroke-linejoin: miter; stroke-miterlimit: 4; fill: rgb(255,255,255); fill-rule: nonzero; opacity: 1;"  transform=" translate(-623.54, -569.33)" d="M 613.231 592.00833 a 38.97358 38.97358 0 0 1 20.15752 -46.26626 c 1.68249 -0.81741 3.03174 1.75871 1.347 2.5772 a 36.0887 36.0887 0 0 0 -18.66273 43.0756 c 0.54944 1.78822 -2.2955 2.39145 -2.84179 0.61346 Z" stroke-linecap="round" />
</g>
<g transform="matrix(1 0 0 1 415.96 522.45)"  >
<path style="stroke: none; stroke-width: 1; stroke-dasharray: none; stroke-linecap: butt; stroke-dashoffset: 0; stroke-linejoin: miter; stroke-miterlimit: 4; fill: rgb(255,255,255); fill-rule: nonzero; opacity: 1;"  transform=" translate(-578.34, -648.52)" d="M 551.4776 642.55365 a 75.11849 75.11849 0 0 0 54.29611 6.98958 c 1.81607 -0.45552 2.42734 2.38682 0.61346 2.8418 a 78.13454 78.13454 0 0 1 -56.48524 -7.38815 c -1.64143 -0.905 -0.05685 -3.34334 1.57567 -2.44323 Z" stroke-linecap="round" />
</g>
<g transform="matrix(1 0 0 1 538.69 459.49)"  >
<path style="stroke: none; stroke-width: 1; stroke-dasharray: none; stroke-linecap: butt; stroke-dashoffset: 0; stroke-linejoin: miter; stroke-miterlimit: 4; fill: rgb(255,255,255); fill-rule: nonzero; opacity: 1;"  transform=" translate(-701.07, -585.56)" d="M 696.3964 576.07528 a 22.06092 22.06092 0 0 0 11.51107 17.48415 c 1.65209 0.88377 0.06567 3.32125 -1.57567 2.44324 a 24.7211 24.7211 0 0 1 -12.7772 -19.31393 a 1.50248 1.50248 0 0 1 1.11417 -1.72763 a 1.461 1.461 0 0 1 1.72763 1.11417 Z" stroke-linecap="round" />
</g>
<g transform="matrix(1 0 0 1 186.74 494.44)"  >
<path style="stroke: none; stroke-width: 1; stroke-dasharray: none; stroke-linecap: butt; stroke-dashoffset: 0; stroke-linejoin: miter; stroke-miterlimit: 4; fill: rgb(63,61,86); fill-rule: nonzero; opacity: 1;"  transform=" translate(-349.13, -620.52)" d="M 567.94141 648.63076 c -13.912 -67.2669 -31.302 -89.69385 -31.302 -89.69385 l -6.64343 -5.15185 l -7.98926 -6.20581 l 0.03858 -0.79785 l -1.8949 -0.64411 l -0.44513 -0.34576 l -0.72943 -0.56006 l -0.11731 0.126 l -0.24768 0.25647 l -36.15234 -12.2887 l -45.86536 -15.57934 L 415.35455 490.14 a 36.7343 36.7343 0 0 0 -29.38672 -14.33386 l -67.82916 0.50189 a 36.73449 36.73449 0 0 0 -24.70972 9.80127 l -44.58306 41.35412 l -69.469 33.17786 l -0.11725 -0.11725 l -0.72949 0.52106 l -10.73358 5.13232 l 0.44293 2.30561 l -6.64343 4.79376 s -17.39 20.868 -31.30206 83.459 c -3.53907 15.926 -5.28113 50.08979 -5.90992 92.1883 a 16.06908 16.06908 0 0 0 16.06244 16.30737 H 511.49408 v -0.00006 H 557.8056 a 16.0717 16.0717 0 0 0 16.06262 -16.29071 C 573.25409 703.131 571.51269 665.902 567.94141 648.63076 Z" stroke-linecap="round" />
</g>
<g transform="matrix(1 0 0 1 655.99 120.09)"  >
<path style="stroke: none; stroke-width: 1; stroke-dasharray: none; stroke-linecap: butt; stroke-dashoffset: 0; stroke-linejoin: miter; stroke-miterlimit: 4; fill: rgb(229,229,229); fill-rule: nonzero; opacity: 1;"  transform=" translate(-818.37, -246.16)" d="M 615.54847 191.73153 a 54.43073 54.43073 0 1 0 0 108.86146 H 1021.187 a 54.43073 54.43073 0 0 0 0 -108.86146 Z" stroke-linecap="round" />
</g>
<g transform="matrix(1 0 0 1 655.98 120.1)"  >
<path style="stroke: none; stroke-width: 1; stroke-dasharray: none; stroke-linecap: butt; stroke-dashoffset: 0; stroke-linejoin: miter; stroke-miterlimit: 4; fill: rgb(255,255,255); fill-rule: nonzero; opacity: 1;"  transform=" translate(-818.37, -246.16)" d="M 615.54847 202.74727 a 43.415 43.415 0 1 0 0 86.83 H 1021.187 a 43.415 43.415 0 0 0 0 -86.83 Z" stroke-linecap="round" />
</g>
<g transform="matrix(1 0 0 1 200.32 235.39)"  >
<circle style="stroke: none; stroke-width: 1; stroke-dasharray: none; stroke-linecap: butt; stroke-dashoffset: 0; stroke-linejoin: miter; stroke-miterlimit: 4; fill: rgb(158,97,106); fill-rule: nonzero; opacity: 1;"  cx="0" cy="0" r="88.86282" />
</g>
<g transform="matrix(1 0 0 1 177.03 318.65)"  >
<path style="stroke: none; stroke-width: 1; stroke-dasharray: none; stroke-linecap: butt; stroke-dashoffset: 0; stroke-linejoin: miter; stroke-miterlimit: 4; fill: rgb(47,46,65); fill-rule: nonzero; opacity: 1;"  transform=" translate(-339.4, -444.71)" d="M 339.97228 445.973 q -0.56945 -1.25376 -1.13574 -2.51618 c 0.14551 0.00466 0.28954 0.02559 0.435 0.0294 Z" stroke-linecap="round" />
</g>
<g transform="matrix(1 0 0 1 194.58 212.62)"  >
<path style="stroke: none; stroke-width: 1; stroke-dasharray: none; stroke-linecap: butt; stroke-dashoffset: 0; stroke-linejoin: miter; stroke-miterlimit: 4; fill: rgb(47,46,65); fill-rule: nonzero; opacity: 1;"  transform=" translate(-356.96, -338.69)" d="M 271.37112 276.63954 c 4.49445 -3.5853 9.74736 -6.88419 15.49373 -6.69877 c 5.74613 0.18519 11.57324 5.37507 10.38275 10.99974 a 91.31784 91.31784 0 0 1 109.89524 -41.20778 c 14.28183 5.03874 28.28737 15.1192 31.56809 29.90415 c 0.8422 3.79533 1.023 7.95689 3.39274 11.03885 c 2.98786 3.88573 8.70455 4.76475 13.41179 3.3978 q 0.07062 -0.0205 0.141 -0.04154 a 4.1986 4.1986 0 0 1 5.07324 5.92695 l -4.041 7.5365 a 32.38317 32.38317 0 0 0 15.428 -0.3281 a 4.195 4.195 0 0 1 4.45469 6.52819 c -13.32473 18.29415 -35.58607 30.10755 -58.30327 29.96873 c -16.14591 -0.09846 -32.45814 -5.66309 -48.17179 -1.95012 a 41.84383 41.84383 0 0 0 -28.14382 58.74019 c -4.82733 -5.28005 -14.159 -4.03 -19.097 1.147 c -4.93774 5.177 -6.21612 12.90385 -5.71853 20.04085 c 0.76077 10.91577 5.03759 21.20144 9.5463 31.21221 c -37.80123 -1.19 -73.555 -27.707 -85.58977 -63.57189 C 229.00827 343.26738 241.674 300.32986 271.37112 276.63954 Z" stroke-linecap="round" />
</g>
<g transform="matrix(1 0 0 1 69.41 570.7)"  >
<polygon style="stroke: none; stroke-width: 1; stroke-dasharray: none; stroke-linecap: butt; stroke-dashoffset: 0; stroke-linejoin: miter; stroke-miterlimit: 4; fill: rgb(0,0,0); fill-rule: nonzero; opacity: 0.2;"  points="-19.94,-68.45 4.98,67.15 19.94,68.45 -19.94,-68.45 " />
</g>
<g transform="matrix(1 0 0 1 304.07 565.59)"  >
<polygon style="stroke: none; stroke-width: 1; stroke-dasharray: none; stroke-linecap: butt; stroke-dashoffset: 0; stroke-linejoin: miter; stroke-miterlimit: 4; fill: rgb(0,0,0); fill-rule: nonzero; opacity: 0.2;"  points="19.94,-73.57 -4.98,72.17 -19.94,73.57 19.94,-73.57 " />
</g>
<g transform="matrix(1 0 0 1 108.02 56.33)"  >
<path style="stroke: none; stroke-width: 1; stroke-dasharray: none; stroke-linecap: butt; stroke-dashoffset: 0; stroke-linejoin: miter; stroke-miterlimit: 4; fill: rgb(213,130,53); fill-rule: nonzero; opacity: 1;"  transform=" translate(-270.39, -182.4)" d="M 292.62933 231.00135 c -4.77882 1.99547 -9.76532 -0.19144 -11.85656 -5.19961 c -2.12322 -5.08476 -0.14017 -10.24648 4.71525 -12.27393 c 4.85588 -2.02764 9.75359 0.1646 11.911 5.33137 C 299.52417 223.94845 297.5627 228.94135 292.62933 231.00135 Z m -9.15419 -27.482 l -3.79972 1.58663 a 4.09911 4.09911 0 0 1 -5.20612 -1.90948 l -0.1879 -0.36761 c -4.08846 -7.37337 -4.5566 -16.33467 -1.384 -26.62094 c 2.939 -9.22731 4.1597 -15.71683 1.70477 -21.596 c -2.83836 -6.79741 -8.8993 -8.92671 -16.62838 -5.84218 c -2.99769 1.25173 -3.95159 1.23179 -6.31064 3.572 a 5.4161 5.4161 0 0 1 -3.92122 1.59344 a 5.2354 5.2354 0 0 1 -3.74713 -1.643 a 5.34757 5.34757 0 0 1 -0.03684 -7.29733 a 41.53525 41.53525 0 0 1 14.04574 -9.64413 c 16.60647 -6.93429 24.96626 3.3032 28.79182 12.46479 c 3.74183 8.96108 1.637 17.27546 -1.745 28.04341 c -2.83416 8.94752 -2.66908 15.57751 0.55033 22.16977 a 4.08088 4.08088 0 0 1 -2.12565 5.49059 Z" stroke-linecap="round" />
</g>
<g transform="matrix(1 0 0 1 502.4 144.1)"  >
<path style="stroke: none; stroke-width: 1; stroke-dasharray: none; stroke-linecap: butt; stroke-dashoffset: 0; stroke-linejoin: miter; stroke-miterlimit: 4; fill: rgb(213,130,53); fill-rule: nonzero; opacity: 1;"  transform=" translate(-664.78, -270.18)" d="M 705.14883 272.122 h -80.707 a 1.944 1.944 0 1 1 0 -3.88791 h 80.707 a 1.944 1.944 0 0 1 0 3.88791 Z" stroke-linecap="round" />
</g>
<g transform="matrix(1 0 0 1 604.8 144.75)"  >
<path style="stroke: none; stroke-width: 1; stroke-dasharray: none; stroke-linecap: butt; stroke-dashoffset: 0; stroke-linejoin: miter; stroke-miterlimit: 4; fill: rgb(213,130,53); fill-rule: nonzero; opacity: 1;"  transform=" translate(-767.18, -270.83)" d="M 807.53044 272.76994 h -80.707 a 1.944 1.944 0 1 1 0 -3.88791 h 80.707 a 1.944 1.944 0 1 1 0 3.88791 Z" stroke-linecap="round" />
</g>
<g transform="matrix(1 0 0 1 707.19 145.4)"  >
<path style="stroke: none; stroke-width: 1; stroke-dasharray: none; stroke-linecap: butt; stroke-dashoffset: 0; stroke-linejoin: miter; stroke-miterlimit: 4; fill: rgb(213,130,53); fill-rule: nonzero; opacity: 1;"  transform=" translate(-869.57, -271.47)" d="M 909.91205 273.41793 H 829.205 a 1.944 1.944 0 0 1 0 -3.88791 h 80.707 a 1.944 1.944 0 1 1 0 3.88791 Z" stroke-linecap="round" />
</g>
<g transform="matrix(1 0 0 1 809.56 146.05)"  >
<path style="stroke: none; stroke-width: 1; stroke-dasharray: none; stroke-linecap: butt; stroke-dashoffset: 0; stroke-linejoin: miter; stroke-miterlimit: 4; fill: rgb(213,130,53); fill-rule: nonzero; opacity: 1;"  transform=" translate(-971.94, -272.12)" d="M 1012.29367 274.06591 h -80.707 a 1.944 1.944 0 0 1 0 -3.88791 h 80.707 a 1.944 1.944 0 0 1 0 3.88791 Z" stroke-linecap="round" />
</g>
<g transform="matrix(1 0 0 1 502.24 113.16)"  >
<circle style="stroke: none; stroke-width: 1; stroke-dasharray: none; stroke-linecap: butt; stroke-dashoffset: 0; stroke-linejoin: miter; stroke-miterlimit: 4; fill: rgb(213,130,53); fill-rule: nonzero; opacity: 1;"  cx="0" cy="0" r="15" />
</g>
<g transform="matrix(1 0 0 1 605.24 113.16)"  >
<circle style="stroke: none; stroke-width: 1; stroke-dasharray: none; stroke-linecap: butt; stroke-dashoffset: 0; stroke-linejoin: miter; stroke-miterlimit: 4; fill: rgb(213,130,53); fill-rule: nonzero; opacity: 1;"  cx="0" cy="0" r="15" />
</g>
<g transform="matrix(1 0 0 1 708.24 113.16)"  >
<circle style="stroke: none; stroke-width: 1; stroke-dasharray: none; stroke-linecap: butt; stroke-dashoffset: 0; stroke-linejoin: miter; stroke-miterlimit: 4; fill: rgb(213,130,53); fill-rule: nonzero; opacity: 1;"  cx="0" cy="0" r="15" />
</g>
<g transform="matrix(1 0 0 1 811.24 113.16)"  >
<circle style="stroke: none; stroke-width: 1; stroke-dasharray: none; stroke-linecap: butt; stroke-dashoffset: 0; stroke-linejoin: miter; stroke-miterlimit: 4; fill: rgb(213,130,53); fill-rule: nonzero; opacity: 1;"  cx="0" cy="0" r="15" />
</g>
<g transform="matrix(1 0 0 1 235.36 51.83)"  >
<path style="stroke: none; stroke-width: 1; stroke-dasharray: none; stroke-linecap: butt; stroke-dashoffset: 0; stroke-linejoin: miter; stroke-miterlimit: 4; fill: rgb(213,130,53); fill-rule: nonzero; opacity: 1;"  transform=" translate(-270.39, -182.4)" d="M 292.62933 231.00135 c -4.77882 1.99547 -9.76532 -0.19144 -11.85656 -5.19961 c -2.12322 -5.08476 -0.14017 -10.24648 4.71525 -12.27393 c 4.85588 -2.02764 9.75359 0.1646 11.911 5.33137 C 299.52417 223.94845 297.5627 228.94135 292.62933 231.00135 Z m -9.15419 -27.482 l -3.79972 1.58663 a 4.09911 4.09911 0 0 1 -5.20612 -1.90948 l -0.1879 -0.36761 c -4.08846 -7.37337 -4.5566 -16.33467 -1.384 -26.62094 c 2.939 -9.22731 4.1597 -15.71683 1.70477 -21.596 c -2.83836 -6.79741 -8.8993 -8.92671 -16.62838 -5.84218 c -2.99769 1.25173 -3.95159 1.23179 -6.31064 3.572 a 5.4161 5.4161 0 0 1 -3.92122 1.59344 a 5.2354 5.2354 0 0 1 -3.74713 -1.643 a 5.34757 5.34757 0 0 1 -0.03684 -7.29733 a 41.53525 41.53525 0 0 1 14.04574 -9.64413 c 16.60647 -6.93429 24.96626 3.3032 28.79182 12.46479 c 3.74183 8.96108 1.637 17.27546 -1.745 28.04341 c -2.83416 8.94752 -2.66908 15.57751 0.55033 22.16977 a 4.08088 4.08088 0 0 1 -2.12565 5.49059 Z" stroke-linecap="round" />
</g>
<g transform="matrix(1 0 0 1 20.36 151.83)"  >
<path style="stroke: none; stroke-width: 1; stroke-dasharray: none; stroke-linecap: butt; stroke-dashoffset: 0; stroke-linejoin: miter; stroke-miterlimit: 4; fill: rgb(213,130,53); fill-rule: nonzero; opacity: 1;"  transform=" translate(-270.39, -182.4)" d="M 292.62933 231.00135 c -4.77882 1.99547 -9.76532 -0.19144 -11.85656 -5.19961 c -2.12322 -5.08476 -0.14017 -10.24648 4.71525 -12.27393 c 4.85588 -2.02764 9.75359 0.1646 11.911 5.33137 C 299.52417 223.94845 297.5627 228.94135 292.62933 231.00135 Z m -9.15419 -27.482 l -3.79972 1.58663 a 4.09911 4.09911 0 0 1 -5.20612 -1.90948 l -0.1879 -0.36761 c -4.08846 -7.37337 -4.5566 -16.33467 -1.384 -26.62094 c 2.939 -9.22731 4.1597 -15.71683 1.70477 -21.596 c -2.83836 -6.79741 -8.8993 -8.92671 -16.62838 -5.84218 c -2.99769 1.25173 -3.95159 1.23179 -6.31064 3.572 a 5.4161 5.4161 0 0 1 -3.92122 1.59344 a 5.2354 5.2354 0 0 1 -3.74713 -1.643 a 5.34757 5.34757 0 0 1 -0.03684 -7.29733 a 41.53525 41.53525 0 0 1 14.04574 -9.64413 c 16.60647 -6.93429 24.96626 3.3032 28.79182 12.46479 c 3.74183 8.96108 1.637 17.27546 -1.745 28.04341 c -2.83416 8.94752 -2.66908 15.57751 0.55033 22.16977 a 4.08088 4.08088 0 0 1 -2.12565 5.49059 Z" stroke-linecap="round" />
</g>
</svg>